<?xml version="1.0" encoding="UTF-8"?>
<svg id="Capa_1" data-name="Capa 1" xmlns="http://www.w3.org/2000/svg" viewBox="0 0 1024 1024">
  <g id="Objeto_generativo_-180_0_" data-name="Objeto generativo (-180, 0)">
    <path d="M920.32,477.78c3.12,19.65,4.76,39.08,4,58.91-.77,19.89-2.76,39.37-7.01,59.64-11.95,57.04-35.9,109.82-70.52,156.7-9.67,13.09-19.1,24.77-30.1,36.65-43.96,47.5-102.14,87.57-163.91,106.07l-32.03,6.82c14.39-12.3,28.33-23.01,40.94-36.35,16.99-17.99,31.69-36.46,44.98-57.58,20.81-33.04,37.06-68.35,47.87-105.87,7.62-26.47,12.88-52.14,13.77-79.53l-.49-11.38c-.92-21.2-9.34-41.31-26.29-55.24l-102.39-84.19-25.22-20.76c-32.62-26.85-65.12-52.64-99.87-77.57,52.22-31.47,107.67-56.77,166.84-64.96,53.04-9.48,112.14-1.71,155.75,28.19,28.73,19.7,50.46,46.1,64.71,77.42,9.24,20.31,15.5,41.15,18.98,63.05Z"/>
    <path d="M684.97,242.76c-25.43-33.29-23.21-79.01,6.09-109.62,23.16-24.2,58.32-32.24,90.37-20.25,28.86,10.8,50.53,37.75,53.73,70.16,4.03,40.76-20.96,77.74-60.18,89.17-32.97,9.61-69.02-2-90-29.46Z"/>
  </g>
  <g id="Objeto_generativo_0_0_" data-name="Objeto generativo (0, 0)">
    <path d="M266.3,670.71c18.27,88.63,68.19,177.19,142.1,231.56-61.69-8.89-125.11-46.18-170.35-87.37-73.69-67.09-124.52-162.01-132.68-261.95-2.89-35.43.06-69.98,9.53-104.03,18.32-65.86,63.58-117.49,130.21-135.82,26.99-7.42,53.87-9.12,81.87-6.74,67,6.03,129.57,31.37,187.09,67.62-33.01,24.19-63.82,48.67-94.93,74.17l-131.17,107.55c-16.43,13.47-25.11,32.54-26.75,53.31-1.67,21.09.82,40.95,5.1,61.7Z"/>
    <circle cx="277.27" cy="191.33" r="83.93"/>
  </g>
</svg>